<svg width="61" height="75" viewBox="0 0 61 75" fill="none" xmlns="http://www.w3.org/2000/svg">
<path d="M30.5001 12.5151C29.1592 12.5151 27.8183 12.8884 26.6442 13.6371L13.4283 22.0704C11.1105 23.5483 9.70898 26.109 9.70898 28.8632V48.961C9.70898 51.8168 12.0507 54.165 14.9014 54.1628H20.1067C22.9574 54.1628 25.3012 51.8168 25.3012 48.961V42.0098C25.3012 41.0311 26.0616 40.2802 27.0407 40.2802H33.9598C34.9367 40.2802 35.6992 41.0311 35.6992 42.0098V48.9432C35.6992 51.7991 38.043 54.145 40.8937 54.145H46.0991C48.9498 54.1428 51.2936 51.7991 51.2936 48.9432V28.8587C51.2936 26.1048 49.89 23.5311 47.57 22.0532L34.3563 13.6332C33.1822 12.8845 31.8391 12.5112 30.4983 12.5112L30.5001 12.5151Z" fill="#2C1810"/>
</svg>
